<svg xmlns="http://www.w3.org/2000/svg" xmlns:xlink="http://www.w3.org/1999/xlink" width="150" height="30" viewBox="0 0 150 30">
  <defs>
    <clipPath id="clip-logo">
      <rect width="150" height="30"/>
    </clipPath>
  </defs>
  <g id="logo" clip-path="url(#clip-logo)">
    <path id="Path_1" data-name="Path 1" d="M20.916-5.628A5.594,5.594,0,0,1,19.278-1.3,6.684,6.684,0,0,1,14.49.168L2.94,0V-26.67l11-.168a6.516,6.516,0,0,1,4.746,1.386,5.649,5.649,0,0,1,1.6,4.368v3.318a4.381,4.381,0,0,1-1.638,3.822,8.164,8.164,0,0,1-4.788,1.176l.378-1.47a8.817,8.817,0,0,1,5.04,1.155q1.638,1.155,1.638,3.969ZM7.224-12.558V-2.9L6.51-3.57H16a.483.483,0,0,0,.546-.546v-7.14A.483.483,0,0,0,16-11.8H6.552Zm0-11.382v9.324l-.672-.714h8.82a.483.483,0,0,0,.546-.546v-6.762a.483.483,0,0,0-.546-.546H6.552ZM31.08.336h-2.1a5.523,5.523,0,0,1-3.7-1.029,4.528,4.528,0,0,1-1.176-3.549V-7.266q0-2.73,1.218-3.78a6.322,6.322,0,0,1,4.116-1.05h5.712v3.024h-6.51q-.462,0-.462.42v5.166a.408.408,0,0,0,.462.462H34.65V-16.716q0-.42-.462-.42h-8.82v-3.486h7.98a6.181,6.181,0,0,1,4.221,1.092Q38.85-18.4,38.85-15.582V0H35.112L34.65-3.024l.252-.8A4.744,4.744,0,0,1,34.02-.735,3.607,3.607,0,0,1,31.08.336ZM53-20.58v3.234H47.8l.42-.42v13.86q0,.42.462.42H53V0H49.9a6.742,6.742,0,0,1-4.431-1.176Q44.1-2.352,44.1-5.166v-12.6l.42.42H41.706V-20.58H44.52l-.42.42v-5.67h4.116v5.67l-.42-.42ZM62.412.336H60.06A5.612,5.612,0,0,1,56.343-.693a4.481,4.481,0,0,1-1.2-3.549V-20.58H59.3V-3.486q0,.462.42.462h6.3L65.982-20.58H70.1L70.14,0H66.486l-.462-3.024.252-.8a4.667,4.667,0,0,1-.9,3.087A3.674,3.674,0,0,1,62.412.336ZM84.42.21,74.8,0V-28.35h4.116v10.794l-.21.8a4.652,4.652,0,0,1,.9-3.108,3.715,3.715,0,0,1,2.961-1.05h2.31A5.593,5.593,0,0,1,88.6-19.908q1.155,1.008,1.155,3.57V-4.62q0,2.73-1.218,3.8T84.42.21Zm-5.5-17.3v14.28l-.462-.5,6.762.042q.462,0,.462-.42v-13.4a.408.408,0,0,0-.462-.462H79.38A.408.408,0,0,0,78.918-17.094ZM100.842.336H98.49A5.612,5.612,0,0,1,94.773-.693a4.481,4.481,0,0,1-1.2-3.549V-20.58h4.158V-3.486q0,.462.42.462h6.3l-.042-17.556h4.116L108.57,0h-3.654l-.462-3.024.252-.8a4.667,4.667,0,0,1-.9,3.087A3.674,3.674,0,0,1,100.842.336Zm22.3-20.916v3.234h-5.208l.42-.42v13.86q0,.42.462.42h4.326V0h-3.108A6.742,6.742,0,0,1,115.6-1.176q-1.365-1.176-1.365-3.99v-12.6l.42.42h-2.814V-20.58h2.814l-.42.42v-5.67h4.116v5.67l-.42-.42ZM130.116,0h-4.158V-20.58h4.158Zm0-24.234h-4.158v-3.78h4.158ZM139.314,0H135.24V-28.35h4.074Zm3.612-10.248H137.97v-2.226h5.418q.336,0,.462-.462L146.2-20.58h4.074l-1.932,6.3a10.5,10.5,0,0,1-1.05,2.625,2.563,2.563,0,0,1-1.512,1.134A11.212,11.212,0,0,1,142.926-10.248Zm1.218,1.218H137.97v-2.184h5.8a10.687,10.687,0,0,1,2.877.294,2.654,2.654,0,0,1,1.533,1.155,12.71,12.71,0,0,1,1.134,2.583L151.872,0H147.63l-2.982-8.568a1.216,1.216,0,0,0-.168-.357A.418.418,0,0,0,144.144-9.03Z" transform="translate(-1 29)" fill="#fa2d93"/>
  </g>
</svg>
