<?xml version="1.0" standalone="no"?>
<!DOCTYPE svg PUBLIC "-//W3C//DTD SVG 20010904//EN"
 "http://www.w3.org/TR/2001/REC-SVG-20010904/DTD/svg10.dtd">
<svg version="1.0" xmlns="http://www.w3.org/2000/svg"
 width="846.000000pt" height="846.000000pt" viewBox="0 0 846.000000 846.000000"
 preserveAspectRatio="xMidYMid meet">
<metadata>
Created by potrace 1.14, written by Peter Selinger 2001-2017
</metadata>
<g transform="translate(0.000000,846.000000) scale(0.100000,-0.100000)"
fill="#000000" stroke="none">
<path d="M3895 8163 c-711 -47 -1393 -285 -1973 -690 -353 -246 -709 -602
-955 -955 -371 -533 -592 -1117 -673 -1788 -25 -202 -25 -648 0 -850 81 -671
302 -1255 673 -1788 246 -353 602 -709 955 -955 744 -518 1689 -782 2568 -717
802 60 1533 346 2160 846 173 138 456 421 594 594 500 626 790 1367 846 2160
68 974 -231 1929 -846 2700 -138 173 -421 456 -594 594 -627 500 -1358 786
-2160 846 -124 9 -476 11 -595 3z m-1446 -2228 c319 -86 429 -119 447 -136 26
-24 42 -65 160 -391 l78 -217 1566 6 1567 6 37 -34 c24 -23 39 -46 42 -69 5
-29 -45 -196 -245 -830 -138 -437 -258 -804 -266 -817 -9 -12 -27 -31 -42 -40
-25 -17 -94 -18 -1088 -21 -583 -2 -1079 0 -1103 3 -87 13 -69 -28 -432 975
-182 503 -357 987 -389 1075 l-58 160 -391 106 c-214 58 -398 111 -407 119
-26 22 -45 66 -45 106 0 51 62 114 111 114 19 0 225 -52 458 -115z m1420
-2726 c74 -17 149 -60 202 -116 158 -167 149 -419 -21 -576 -83 -77 -147 -101
-270 -102 -86 0 -101 3 -160 31 -95 46 -153 101 -197 192 -36 73 -38 80 -38
176 0 93 3 107 32 168 83 175 270 269 452 227z m1672 -8 c83 -26 162 -82 210
-150 184 -257 20 -614 -295 -638 -127 -10 -258 45 -339 143 -71 85 -109 220
-89 320 50 249 283 396 513 325z"/>
<path d="M3273 4943 c-24 -2 -43 -7 -43 -10 0 -3 19 -57 41 -119 l42 -114
1333 0 1332 0 27 83 c15 45 33 101 40 125 l14 42 -1372 -2 c-755 -1 -1391 -3
-1414 -5z"/>
<path d="M3402 4452 c2 -5 25 -70 52 -145 l50 -137 1155 2 1154 3 43 135 c24
74 44 138 44 143 0 4 -563 7 -1251 7 -688 0 -1249 -4 -1247 -8z"/>
<path d="M3600 3913 c0 -5 22 -66 48 -138 l48 -130 974 -2 975 -3 39 128 c22
70 41 133 44 140 3 9 -213 12 -1062 12 -586 0 -1066 -3 -1066 -7z"/>
<path d="M3702 2950 c-97 -60 -97 -210 0 -270 71 -43 171 -17 213 55 30 51 32
95 5 150 -37 77 -145 109 -218 65z"/>
<path d="M5352 2953 c-18 -9 -44 -35 -57 -58 -64 -108 9 -235 135 -235 88 0
150 64 150 156 0 117 -121 190 -228 137z"/>
</g>
</svg>
